<?xml version="1.0" encoding="utf-8"?>
<!-- Generator: Adobe Illustrator 19.0.0, SVG Export Plug-In . SVG Version: 6.00 Build 0)  -->
<svg version="1.1" id="layer" xmlns="http://www.w3.org/2000/svg" xmlns:xlink="http://www.w3.org/1999/xlink" x="0px" y="0px"
	 viewBox="-153 -46 652 652" style="enable-background:new -153 -46 652 652;" xml:space="preserve">
<style type="text/css">
	.st0{fill:#FFFFFF;}
	.st1{fill:#006338;}
	.st2{clip-path:url(#SVGID_2_);fill:#F8A500;}
	.st3{clip-path:url(#SVGID_2_);fill:#006338;}
	.st4{fill:#1C1B1B;}
	.st5{fill-rule:evenodd;clip-rule:evenodd;fill:#141211;}
	.st6{fill-rule:evenodd;clip-rule:evenodd;fill:#1C1B1B;}
	.st7{clip-path:url(#SVGID_4_);fill:#F8A500;}
	.st8{clip-path:url(#SVGID_4_);fill:#005F31;}
	.st9{fill:none;stroke:#1C1B1B;stroke-width:1.5457;stroke-miterlimit:10;}
	.st10{fill:#005F31;}
	.st11{fill:#F8A500;}
</style>
<g>
	<path class="st0" d="M417.5,274.8C417.5,412.4,306,524,168.4,524C30.8,524-80.8,412.4-80.8,274.8c0-137.6,111.5-249.2,249.2-249.2
		C306,25.7,417.5,137.2,417.5,274.8"/>
	<polygon class="st1" points="-57.4,217.8 -56.7,214.8 -40.2,219 -41,222.1 	"/>
	<polygon class="st1" points="-55.6,210.4 -54.5,207.1 -40.5,204.1 -52.3,200.3 -51.4,197.3 -35.2,202.5 -36.3,205.8 -50.2,208.8 
		-38.4,212.6 -39.4,215.6 	"/>
	<polygon class="st1" points="-46.3,192.6 -47.4,195.5 -50.3,194.4 -46.9,185.6 -44,186.7 -45.2,189.6 -32.2,194.7 -33.3,197.6 	"/>
	<polygon class="st1" points="-45.8,183.1 -42,174.7 -39.3,176 -41.7,181.4 -38.1,183 -35.8,177.8 -33,179.1 -35.4,184.3 
		-31.8,185.9 -29.4,180.5 -26.6,181.7 -30.3,190 	"/>
	<path class="st1" d="M-40.2,171.1l2.3-4.3c0.8-1.4,1.6-2.7,3.1-3.4c1.5-0.6,3.2-0.5,4.6,0.2c1.1,0.6,2.2,1.8,2.6,3
		c0.4,1.1,0.4,2.3,0,3.4l7.7-1.2l-1.8,3.4l-7.8,0.9l5.8,3l-1.5,2.8L-40.2,171.1z M-30.8,170.5c0.4-0.7,0.8-1.7,0.5-2.5
		c-0.2-0.7-0.6-1.2-1.3-1.5c-0.6-0.3-1.4-0.4-2.1-0.1c-0.8,0.4-1.2,1-1.6,1.8l-0.8,1.5l4.5,2.3L-30.8,170.5z"/>
	<path class="st1" d="M-22.4,150c-1.7,0.1-3.4,1.1-4.3,2.6c-0.8,1.2-1.1,2.7-0.8,4.1c0.3,1.5,1.3,3.1,2.6,3.9c1.2,0.8,2.8,1,4.2,0.7
		c1.6-0.3,3.1-1.3,3.9-2.7c1.1-1.7,1.1-4.1,0-5.8l-3.8,6l-2.5-1.6l5.9-9.4l0.3,0.2c4.2,2.6,5.2,8.2,2.6,12.3c-2.6,4.1-8,5.7-12.3,3
		c-4.2-2.7-5.3-8.3-2.8-12.4c1.8-2.9,5.4-4.8,8.9-4.2L-22.4,150z"/>
	<path class="st1" d="M-5.1,132.2c3.9,3,4.6,8.5,1.7,12.4c-2.9,3.8-8.4,4.7-12.4,1.7c-3.9-3-4.7-8.5-1.7-12.4S-9,129.2-5.1,132.2
		 M-13.9,143.7c2.5,1.9,6.2,1.5,8.1-1c1.9-2.5,1.3-6.2-1.2-8.1c-2.5-1.9-6.1-1.5-8,1C-17,138.2-16.4,141.8-13.9,143.7"/>
	<polygon class="st1" points="-10.2,125 -8,122.5 4.7,127.7 -1.9,115.7 0.4,113.2 8.6,129.5 6.9,131.4 	"/>
	<polygon class="st1" points="2.5,111.1 9.1,104.8 11.2,106.9 6.9,111.1 9.7,113.9 13.7,109.9 15.9,112.1 11.8,116.1 14.5,118.9 
		18.8,114.7 20.9,116.9 14.4,123.3 	"/>
	<path class="st1" d="M12,102l3.7-3.2c1.2-1,2.4-2,4.1-2c1.6,0,3.2,0.7,4.2,1.9c0.8,0.9,1.4,2.5,1.4,3.7c0,1.2-0.5,2.3-1.2,3.2
		l7.6,1.7l-2.9,2.5l-7.6-2l4.3,4.9l-2.4,2.1L12,102z M21,104.9c0.6-0.5,1.3-1.3,1.4-2.2c0.1-0.7-0.1-1.4-0.6-1.9
		c-0.5-0.6-1.2-0.9-1.9-0.8c-0.9,0.1-1.5,0.5-2.1,1.1l-1.3,1.1l3.3,3.8L21,104.9z"/>
	<polygon class="st1" points="23.2,92.4 26,90.3 39.1,96 31.7,86 34.2,84.2 44.4,97.7 41.6,99.8 28.5,94.2 35.9,104.1 33.4,106 	"/>
	<polygon class="st1" points="38.2,81.3 41.8,79.1 52.5,87.7 49.6,74.2 53.2,72 62.2,86.4 59.5,88 52.8,77.3 55.8,90.4 53.5,91.8 
		43.1,83.3 49.8,94.1 47.1,95.7 	"/>
	<polygon class="st1" points="57.1,69.9 65.2,65.7 66.6,68.4 61.3,71.2 63.1,74.7 68.2,72 69.6,74.7 64.6,77.4 66.4,80.8 71.6,78.1 
		73.1,80.8 65,85 	"/>
	<polygon class="st1" points="69,63.9 72.2,62.4 83.7,71 78.7,59.6 81.6,58.4 88.4,73.9 85.2,75.3 73.7,66.8 78.6,78.2 75.8,79.4 	
		"/>
	<polygon class="st1" points="88.5,59.1 85.6,60.1 84.5,57.3 93.4,54 94.4,56.9 91.4,58 96.2,71.1 93.2,72.1 	"/>
	<path class="st1" d="M100,52l2.4-0.7L114,65.4l-3.3,1l-3-3.7l-5.8,1.7l-0.5,4.7l-3.3,1L100,52z M105.6,60.2l-3.2-4.4l-0.3,5.4
		L105.6,60.2z"/>
	<polygon class="st1" points="112.1,48.6 115.2,47.9 118.3,61.4 123.4,60.2 124.1,63.2 115.9,65.1 	"/>
	<path class="st1" d="M136.1,44l2.4-0.3l9.3,15.9l-3.4,0.5l-2.4-4.1l-6,0.8l-1.3,4.6l-3.4,0.5L136.1,44z M140.4,53l-2.5-4.9
		l-1.1,5.3L140.4,53z"/>
	<path class="st1" d="M151.9,42.3l0.6,10.6c0,0.8,0,1.6,0.5,2.3c0.5,0.8,1.3,1.4,2.3,1.3c0.8,0,1.6-0.6,2.1-1.3
		c0.4-0.8,0.4-1.7,0.3-2.6L157.1,42l3.1-0.2l0.6,10.6c0.1,1.7,0,3.3-1,4.7c-1,1.4-2.6,2.4-4.4,2.5c-1.6,0.1-3.3-0.7-4.5-1.8
		c-1.3-1.3-1.5-2.9-1.6-4.6l-0.6-10.6L151.9,42.3z"/>
	<polygon class="st1" points="166.2,44.9 163,44.9 163,41.9 172.4,41.7 172.5,44.8 169.3,44.8 169.5,58.7 166.4,58.8 	"/>
	<polygon class="st1" points="175.5,41.8 178.7,42 178.3,48.8 184.3,49.2 184.7,42.4 187.9,42.6 186.9,59.5 183.7,59.3 184.1,52.2 
		178.1,51.8 177.7,59 174.5,58.8 	"/>
	<path class="st1" d="M208.1,53.8c-0.7,4.9-5.2,8.2-10,7.5c-4.8-0.7-8.2-5.1-7.5-10c0.7-4.9,5.2-8.2,10-7.6
		C205.4,44.4,208.8,48.9,208.1,53.8 M193.7,51.7c-0.4,3.1,1.8,6.1,4.8,6.6c3.1,0.4,6-1.9,6.5-5c0.4-3.2-1.7-6.1-4.8-6.5
		S194.2,48.5,193.7,51.7"/>
	<path class="st1" d="M213.2,46.1l4.8,1.1c1.6,0.4,3,0.8,4,2.1c1,1.3,1.4,3,1,4.5c-0.3,1.2-1.2,2.6-2.2,3.3c-1,0.7-2.1,0.9-3.3,0.9
		l3.1,7.1l-3.8-0.8L214,57l-1.4,6.3l-3.1-0.7L213.2,46.1z M216.2,55.1c0.8,0.2,1.9,0.3,2.6-0.2c0.6-0.4,1-0.9,1.2-1.6
		c0.2-0.7,0-1.5-0.5-2.1c-0.6-0.7-1.3-0.9-2.2-1.1l-1.7-0.4l-1.1,4.9L216.2,55.1z"/>
	
		<rect x="224.9" y="49.5" transform="matrix(-0.9649 -0.2626 0.2626 -0.9649 429.799 173.4937)" class="st1" width="3.1" height="17"/>
	<polygon class="st1" points="235.1,54.9 232.1,53.9 233,51 242,53.8 241.1,56.7 238.1,55.8 233.9,69.1 230.9,68.1 	"/>
	<polygon class="st1" points="244.7,66.2 243.3,54.2 246.5,55.4 247.2,64 253.5,58 256.7,59.3 247.7,67.3 245.5,73.2 242.5,72 	"/>
	<path class="st1" d="M277.2,78.6c-2.2,4.4-7.6,6-11.9,3.8c-4.3-2.2-6.1-7.5-3.9-11.9c2.2-4.4,7.6-6.1,11.9-3.9
		C277.7,68.9,279.4,74.2,277.2,78.6 M264.2,72c-1.4,2.8-0.3,6.4,2.4,7.8c2.8,1.4,6.3,0.2,7.7-2.6c1.4-2.8,0.4-6.3-2.5-7.7
		C269.1,68,265.7,69.1,264.2,72"/>
	<polygon class="st1" points="284.6,73.1 287.6,74.9 287,89.2 293.6,78.7 296.2,80.3 287.3,94.7 284.3,92.9 284.8,78.7 278.3,89.1 
		275.6,87.5 	"/>
	<path class="st1" d="M306.1,87.3l2.8,2.2c2,1.6,3.9,3.4,4.4,5.9c0.5,2.4-0.3,5.1-1.8,7c-1.5,1.9-3.9,3.2-6.3,3.3
		c-2.7,0.1-4.7-1.2-6.8-2.8l-2.9-2.2L306.1,87.3z M300.3,100.4c1.4,1.1,2.7,2,4.5,2.1c1.7,0,3.2-0.7,4.2-2c1.1-1.4,1.5-3.2,1-4.9
		c-0.5-1.6-1.9-2.7-3.2-3.8l-0.2-0.1l-6.7,8.5L300.3,100.4z"/>
	<polygon class="st1" points="319.6,98.2 326.4,104.2 324.4,106.5 319.9,102.5 317.3,105.4 321.6,109.2 319.6,111.5 315.3,107.7 
		312.7,110.6 317.1,114.6 315.1,116.9 308.3,110.8 	"/>
	<polygon class="st1" points="328.5,106.1 330.8,108.4 324.8,120.7 337.2,115 339.5,117.3 322.8,124.5 321,122.7 	"/>
	<polygon class="st1" points="341.5,119.6 347.4,126.6 345.1,128.6 341.2,124 338.3,126.6 342,130.9 339.7,132.9 335.9,128.6 
		333,131.1 336.9,135.6 334.5,137.6 328.6,130.7 	"/>
	<polygon class="st1" points="349.9,129.7 351.8,132.2 340.8,140.7 344,144.8 341.6,146.6 336.5,140 	"/>
	<path class="st1" d="M359.1,157.5c-4.1,2.7-9.6,1.6-12.2-2.5c-2.7-4-1.7-9.5,2.4-12.2c4.1-2.7,9.6-1.6,12.3,2.4
		C364.3,149.3,363.2,154.8,359.1,157.5 M351.1,145.4c-2.6,1.7-3.4,5.4-1.7,8c1.7,2.6,5.4,3.2,8,1.5c2.7-1.8,3.4-5.3,1.6-7.9
		C357.3,144.3,353.8,143.6,351.1,145.4"/>
	<path class="st1" d="M353.4,164.5l14.8-8.3l2,3.5c0.8,1.4,1.6,2.7,1.5,4.4c-0.1,1.7-1.1,3.2-2.6,4.1c-1.5,0.8-3.2,1-4.8,0.4
		c-1.7-0.7-2.6-2.4-3.4-3.9l-0.3-0.5l-5.6,3.2L353.4,164.5z M363.5,163.1c0.4,0.7,0.8,1.5,1.4,2c0.7,0.7,1.7,0.8,2.6,0.3
		c0.9-0.5,1.2-1.5,1-2.4c-0.2-0.7-0.7-1.5-1-2.1l-0.3-0.5l-3.9,2.2L363.5,163.1z"/>
	<polygon class="st1" points="375.2,168.7 377,172.6 367.2,182.2 380.9,180.9 382.7,184.8 367.3,191.9 366,189.1 377.5,183.7 
		364.1,185.1 363,182.7 372.7,173.3 361.1,178.7 359.8,175.8 	"/>
	<polygon class="st1" points="384.2,188.9 387.4,197.5 384.5,198.5 382.5,192.9 378.8,194.3 380.8,199.7 377.9,200.7 375.9,195.4 
		372.3,196.7 374.4,202.3 371.5,203.4 368.3,194.9 	"/>
	<polygon class="st1" points="388.8,201.4 389.8,204.8 379.9,215.1 391.8,211.6 392.7,214.6 376.5,219.4 375.5,216.1 385.3,205.7 
		373.4,209.2 372.5,206.2 	"/>
	<polygon class="st1" points="391.2,221.4 390.5,218.3 393.5,217.6 395.6,226.8 392.6,227.5 391.9,224.4 378.3,227.5 377.6,224.5 	
		"/>
	<path class="st1" d="M-49.2,296.9l0.3,2.4l-16.1,8.9l-0.4-3.4l4.2-2.3l-0.7-6l-4.6-1.4l-0.4-3.4L-49.2,296.9z M-58.3,301l4.9-2.4
		l-5.3-1.2L-58.3,301z"/>
	<path class="st1" d="M-47.3,310.9l-10.4,1.9c-0.8,0.1-1.6,0.2-2.2,0.7c-0.8,0.6-1.2,1.5-1,2.5c0.1,0.8,0.8,1.6,1.6,1.9
		c0.9,0.3,1.7,0.2,2.6,0l10.4-1.9l0.6,3.1l-10.4,1.9c-1.6,0.3-3.2,0.5-4.7-0.4c-1.5-0.9-2.7-2.3-3-4c-0.3-1.6,0.3-3.4,1.3-4.6
		c1.2-1.5,2.7-1.9,4.4-2.2l10.4-1.9L-47.3,310.9z"/>
	<polygon class="st1" points="-47.7,324.3 -48.4,321.3 -45.4,320.6 -43.2,329.8 -46.2,330.5 -47,327.4 -60.5,330.6 -61.2,327.6 	"/>
	<path class="st1" d="M-46.2,349.6c-4.7,1.5-9.6-1.2-11-5.8c-1.4-4.6,1.1-9.6,5.8-11.1c4.7-1.5,9.7,1.1,11.1,5.8
		C-38.9,343.2-41.5,348.2-46.2,349.6 M-50.4,335.7c-3,0.9-4.8,4.2-3.9,7.2c0.9,3,4.3,4.6,7.3,3.7c3-0.9,4.8-4.1,3.8-7.1
		C-44.2,336.4-47.4,334.8-50.4,335.7"/>
	<path class="st1" d="M-37.2,349l1.8,4.6c0.6,1.5,1,3,0.5,4.5c-0.5,1.5-1.7,2.8-3.2,3.4c-1.2,0.5-2.8,0.5-4,0
		c-1.1-0.4-2-1.2-2.6-2.2l-4.2,6.6l-1.4-3.6l4.4-6.5l-6,2.4l-1.2-2.9L-37.2,349z M-42.9,356.5c0.3,0.8,0.8,1.7,1.6,2.1
		c0.6,0.3,1.3,0.3,2,0.1c0.7-0.3,1.2-0.8,1.4-1.6c0.2-0.9,0-1.6-0.3-2.4l-0.6-1.6l-4.7,1.8L-42.9,356.5z"/>
	
		<rect x="-41" y="357.5" transform="matrix(-0.4065 -0.9137 0.9137 -0.4065 -389.8416 478.8141)" class="st1" width="3.1" height="17"/>
	<polygon class="st1" points="-31.8,369.6 -33.1,366.8 -30.4,365.5 -26.2,374 -29,375.3 -30.4,372.5 -42.9,378.6 -44.3,375.8 	"/>
	<path class="st1" d="M-25.6,375.2l4.4,8l-2.7,1.5l-2.9-5.2l-3.4,1.9l2.8,5l-2.7,1.5l-2.8-5l-3.4,1.9l2.9,5.2l-2.7,1.5l-4.4-8
		L-25.6,375.2z M-22,374.6l5.2,3.1l-1.5,2.2l-5-3.2L-22,374.6z"/>
	
		<rect x="-24.5" y="388" transform="matrix(-0.5407 -0.8412 0.8412 -0.5407 -368.9025 591.5963)" class="st1" width="3.1" height="17"/>
	<polygon class="st1" points="-13.4,395.8 -11.3,398.7 -17.3,411.6 -7.2,404.4 -5.4,406.9 -19.1,416.9 -21.2,414 -15.3,401 
		-25.3,408.2 -27.2,405.7 	"/>
	<polygon class="st1" points="-4.8,412.5 -6.8,410 -4.4,408.1 1.6,415.4 -0.8,417.4 -2.8,414.9 -13.6,423.7 -15.6,421.3 	"/>
	<polygon class="st1" points="2.4,416.4 8.5,423.2 6.2,425.3 2.3,420.8 -0.6,423.4 3.2,427.7 0.9,429.7 -2.9,425.5 -5.8,428.1 
		-1.8,432.5 -4.1,434.6 -10.2,427.8 	"/>
	<path class="st1" d="M10.2,425.1l3.5,3.5c1.1,1.2,2.1,2.3,2.3,4c0.1,1.6-0.4,3.2-1.6,4.4c-0.9,0.9-2.4,1.6-3.6,1.6
		c-1.2,0-2.3-0.3-3.3-1l-1.2,7.7l-2.7-2.7l1.4-7.7l-4.6,4.6l-2.2-2.2L10.2,425.1z M8,434.2c0.6,0.6,1.4,1.2,2.3,1.3
		c0.7,0,1.3-0.2,1.8-0.8c0.5-0.5,0.8-1.3,0.7-2c-0.1-0.9-0.6-1.5-1.3-2.1l-1.2-1.2L6.8,433L8,434.2z"/>
	<path class="st1" d="M25.7,446.3c0.1-1.7-0.6-3.5-1.9-4.6c-1.1-0.9-2.5-1.5-3.9-1.5c-1.6,0-3.2,0.8-4.3,2c-0.9,1.1-1.4,2.6-1.3,4.1
		c0.1,1.7,0.8,3.2,2.1,4.3c1.5,1.3,3.9,1.7,5.7,0.9l-5.4-4.6l1.9-2.2l8.4,7.2l-0.2,0.3c-3.2,3.8-8.8,3.9-12.5,0.7
		c-3.7-3.2-4.4-8.8-1.1-12.6c3.3-3.8,9-4,12.7-0.9c2.6,2.3,3.9,6.1,2.8,9.4L25.7,446.3z"/>
	<path class="st1" d="M42.4,463.3c-2.9,4-8.4,4.8-12.3,2c-3.9-2.8-4.9-8.3-2-12.3c2.9-4,8.4-4.9,12.4-2
		C44.4,453.8,45.3,459.3,42.4,463.3 M30.7,454.7c-1.8,2.6-1.3,6.2,1.2,8.1c2.5,1.8,6.2,1.2,8-1.4c1.9-2.6,1.3-6.2-1.2-8
		C36.1,451.5,32.6,452.1,30.7,454.7"/>
	<path class="st1" d="M52,459.1l-5.5,9c-0.4,0.7-0.9,1.3-0.9,2.1c-0.1,1,0.3,1.9,1.2,2.4c0.7,0.4,1.7,0.5,2.4,0.1
		c0.8-0.4,1.3-1.2,1.7-1.9l5.5-9l2.7,1.6l-5.5,9c-0.9,1.4-1.8,2.7-3.5,3.3c-1.6,0.5-3.5,0.4-5-0.5c-1.4-0.8-2.3-2.5-2.6-4
		c-0.3-1.8,0.4-3.2,1.3-4.8l5.5-9L52,459.1z"/>
	<polygon class="st1" points="60.4,464.3 63.3,465.8 61.4,479.3 71.4,470 74.3,471.5 60.6,483.5 58.3,482.3 	"/>
	<polygon class="st1" points="75.6,472 83.9,475.7 82.7,478.5 77.2,476.1 75.7,479.7 80.9,482 79.6,484.8 74.4,482.5 72.8,486 
		78.3,488.5 77,491.2 68.7,487.6 	"/>
	<path class="st1" d="M86.3,476.7l4.6,1.7c1.5,0.6,2.9,1.2,3.7,2.7c0.8,1.4,0.9,3.1,0.4,4.6c-0.4,1.2-1.5,2.4-2.6,3
		c-1.1,0.5-2.2,0.6-3.4,0.5l2.1,7.5l-3.6-1.4l-1.9-7.7l-2.3,6.1l-2.9-1.1L86.3,476.7z M88,486c0.8,0.3,1.8,0.6,2.6,0.2
		c0.6-0.3,1.1-0.8,1.4-1.4c0.3-0.7,0.2-1.5-0.2-2.1c-0.5-0.8-1.2-1.1-2-1.4l-1.6-0.6l-1.8,4.7L88,486z"/>
	<polygon class="st1" points="98.4,481.3 101.8,482.3 105,496.2 108.6,484.3 111.6,485.2 106.7,501.5 103.4,500.5 100.1,486.6 
		96.5,498.4 93.5,497.5 	"/>
	<polygon class="st1" points="114.4,485.9 123.3,488 122.6,491 116.8,489.6 115.9,493.4 121.5,494.7 120.8,497.7 115.2,496.4 
		114.4,500.2 120.2,501.5 119.5,504.5 110.6,502.4 	"/>
	<polygon class="st1" points="125.7,488.6 130,489.3 132.5,502.8 139,490.7 143.2,491.3 140.6,508.1 137.5,507.6 139.5,495 
		133.2,506.9 130.6,506.5 128.2,493.3 126.2,505.8 123.1,505.4 	"/>
	<polygon class="st1" points="145.8,491.4 154.9,492.2 154.7,495.2 148.7,494.7 148.4,498.6 154.1,499.1 153.9,502.1 148.2,501.7 
		147.9,505.6 153.8,506.1 153.6,509.1 144.5,508.4 	"/>
	<polygon class="st1" points="157.4,492.4 161,492.4 167.9,504.9 168.1,492.6 171.2,492.6 170.9,509.6 167.4,509.5 160.5,497 
		160.3,509.4 157.2,509.3 	"/>
	<polygon class="st1" points="176,495.4 172.8,495.6 172.7,492.5 182.1,492.1 182.3,495.2 179.1,495.3 179.7,509.2 176.6,509.3 	"/>
	<path class="st1" d="M187.5,491.7l2.4-0.2l8.7,16.2l-3.5,0.3l-2.2-4.2l-6,0.6l-1.5,4.5l-3.5,0.3L187.5,491.7z M191.4,500.9
		l-2.3-4.9l-1.3,5.3L191.4,500.9z"/>
	<polygon class="st1" points="198.4,490.4 201.5,490 203.7,503.7 208.8,502.9 209.3,505.9 201,507.2 	"/>
	<polygon class="st1" points="208.1,488.9 217.1,487 217.7,490 211.8,491.2 212.6,495 218.2,493.9 218.8,496.9 213.2,498 214,501.9 
		219.9,500.6 220.5,503.6 211.6,505.5 	"/>
	<path class="st1" d="M230.3,501.2l-4.8-16.3l3.8-1.1c1.6-0.5,3-1,4.7-0.5c1.6,0.5,2.9,1.8,3.4,3.5c0.5,1.6,0.3,3.3-0.7,4.7
		c-1,1.5-2.9,2-4.5,2.4l-0.6,0.2l1.8,6.2L230.3,501.2z M231.2,491c0.7-0.2,1.6-0.4,2.3-0.9c0.8-0.5,1.2-1.5,0.9-2.4
		c-0.3-1-1.2-1.5-2.1-1.5c-0.7,0-1.6,0.3-2.3,0.5l-0.6,0.2l1.3,4.2L231.2,491z"/>
	<path class="st1" d="M256.2,483.4c1.7,4.6-0.6,9.7-5.1,11.4c-4.5,1.7-9.6-0.5-11.4-5.1c-1.7-4.6,0.5-9.7,5.1-11.4
		C249.4,476.5,254.5,478.8,256.2,483.4 M242.6,488.5c1.1,2.9,4.5,4.5,7.4,3.4c2.9-1.1,4.4-4.5,3.3-7.5c-1.1-3-4.4-4.5-7.4-3.4
		C242.9,482.2,241.5,485.5,242.6,488.5"/>
	<path class="st1" d="M258,473.1l4.5,9.6c0.3,0.7,0.6,1.5,1.3,1.9c0.8,0.6,1.8,0.8,2.6,0.4c0.8-0.4,1.3-1.1,1.4-2
		c0.1-0.9-0.3-1.7-0.7-2.5l-4.5-9.6l2.8-1.3l4.5,9.6c0.7,1.5,1.3,3,0.8,4.7c-0.4,1.7-1.6,3.2-3.1,3.9c-1.5,0.7-3.3,0.6-4.8,0
		c-1.7-0.7-2.5-2.1-3.3-3.7l-4.5-9.6L258,473.1z"/>
	<path class="st1" d="M268.1,468.3l4.3-2.4c1.4-0.8,2.8-1.4,4.4-1.1c1.6,0.3,3,1.3,3.7,2.7c0.6,1.1,0.8,2.7,0.5,3.9
		c-0.3,1.2-1,2.1-1.9,2.9l7,3.3l-3.4,1.9l-7-3.6l3.1,5.7l-2.8,1.5L268.1,468.3z M276.3,473c0.7-0.4,1.6-1,1.9-1.8
		c0.2-0.7,0.1-1.4-0.2-2c-0.4-0.6-1-1.1-1.7-1.2c-0.9-0.1-1.6,0.2-2.3,0.6l-1.5,0.8l2.4,4.4L276.3,473z"/>
	<polygon class="st1" points="284.8,458.7 287.4,456.9 295,468.6 299.4,465.7 301,468.3 294.1,472.8 	"/>
	<polygon class="st1" points="292.9,453.2 300.3,447.9 302.1,450.3 297.3,453.9 299.6,457 304.2,453.6 306,456.1 301.4,459.5 
		303.7,462.6 308.5,459.1 310.3,461.6 302.9,466.9 	"/>
	<path class="st1" d="M307.1,442.5l2.7-2.3c1.9-1.6,4-3.2,6.6-3.2c2.4-0.1,4.9,1.2,6.5,3c1.6,1.8,2.4,4.4,2.1,6.8
		c-0.4,2.7-2.1,4.4-4,6.1l-2.7,2.4L307.1,442.5z M318.9,450.6c1.3-1.2,2.5-2.3,2.9-4.1c0.3-1.6-0.1-3.3-1.2-4.5
		c-1.2-1.3-2.9-2.1-4.7-1.9c-1.7,0.2-3,1.3-4.3,2.4l-0.2,0.2l7.2,8.2L318.9,450.6z"/>
	<path class="st1" d="M317.3,428.6l1.5-5.8l2.5,0.8l-1.8,5.7L317.3,428.6z M318.9,432l6.5-6.4l2.2,2.2l-4.2,4.2l2.8,2.8l4.1-4
		l2.2,2.2l-4,4l2.8,2.8l4.2-4.2l2.2,2.2l-6.5,6.4L318.9,432z"/>
	<polygon class="st1" points="326.2,424.8 328.4,422.3 341,427.5 334.4,415.5 336.6,413 344.9,429.2 343.2,431.1 	"/>
	<polygon class="st1" points="337.4,411.9 343,404.7 345.4,406.6 341.8,411.3 344.8,413.7 348.4,409.2 350.8,411.1 347.2,415.6 
		350.3,418 354,413.3 356.4,415.1 350.8,422.3 	"/>
	<polygon class="st1" points="344.5,402.6 346.3,400.1 357.7,408.1 360.7,403.9 363.2,405.6 358.4,412.4 	"/>
	<path class="st1" d="M366.3,384.8c4.2,2.6,5.4,8,2.9,12.1c-2.5,4.1-7.9,5.5-12.1,2.9c-4.2-2.6-5.5-8-3-12.2
		C356.6,383.5,362.1,382.2,366.3,384.8 M358.6,397.2c2.7,1.6,6.3,0.8,7.9-1.8c1.6-2.6,0.7-6.3-2-7.9c-2.7-1.7-6.2-0.9-7.9,1.8
		C355,392,355.9,395.5,358.6,397.2"/>
	<path class="st1" d="M375,386.2l-15.1-7.8l1.8-3.5c0.8-1.4,1.4-2.9,2.9-3.7c1.5-0.8,3.3-0.8,4.8,0c1.5,0.8,2.6,2.1,2.9,3.8
		c0.4,1.8-0.6,3.5-1.4,5l-0.3,0.5l5.7,3L375,386.2z M368.3,378.5c0.4-0.7,0.8-1.5,1-2.2c0.2-1-0.3-1.9-1.1-2.3
		c-0.9-0.5-1.9-0.2-2.5,0.5c-0.5,0.5-0.9,1.4-1.2,2l-0.3,0.5l3.9,2L368.3,378.5z"/>
	<path class="st1" d="M381.1,374.1l-15.5-6.9l1.6-3.6c0.7-1.5,1.2-2.9,2.7-3.8c1.4-0.9,3.3-1,4.8-0.3c1.5,0.7,2.7,2,3.1,3.6
		c0.5,1.7-0.4,3.5-1.1,5l-0.3,0.6l5.9,2.6L381.1,374.1z M374,366.9c0.3-0.7,0.7-1.5,0.8-2.3c0.1-1-0.4-1.9-1.3-2.3
		c-0.9-0.4-1.9-0.1-2.5,0.7c-0.4,0.6-0.8,1.5-1.1,2.1l-0.2,0.5l4,1.8L374,366.9z"/>
	<polygon class="st1" points="370.6,355.7 373.9,347.2 376.7,348.3 374.6,353.9 378.3,355.3 380.3,349.9 383.1,351 381.1,356.3 
		384.8,357.7 386.9,352.1 389.7,353.2 386.5,361.8 	"/>
	<polygon class="st1" points="374.8,344.9 376,340.8 389.8,340.1 378.7,332 379.9,327.9 396.1,332.8 395.2,335.8 383,332.2 394,340 
		393.2,342.5 379.8,343.1 392,346.7 391.1,349.8 	"/>
	<polygon class="st1" points="380.4,325.3 382.3,316.4 385.3,317.1 384,322.9 387.8,323.8 389.1,318.2 392.1,318.8 390.8,324.4 
		394.6,325.3 395.9,319.4 398.9,320.1 396.9,329 	"/>
	<polygon class="st1" points="382.9,314 383.4,310.5 396.7,305.4 384.5,303.5 384.9,300.4 401.7,303 401.2,306.4 387.9,311.6 
		400.1,313.4 399.6,316.5 	"/>
	<polygon class="st1" points="388.4,296.1 388.1,299.2 385,298.9 385.9,289.5 388.9,289.8 388.7,292.9 402.5,294.2 402.2,297.3 	"/>
</g>
<g>
	<defs>
		<path id="SVGID_1_" d="M22.5,274.4c0,79,64.1,143.1,143.1,143.1c79,0,143.1-64.1,143.1-143.1c0-79-64.1-143.1-143.1-143.1
			C86.5,131.3,22.5,195.4,22.5,274.4"/>
	</defs>
	<clipPath id="SVGID_2_">
		<use xlink:href="#SVGID_1_"  style="overflow:visible;"/>
	</clipPath>
	<rect x="8.7" y="244.6" class="st2" width="322" height="7.7"/>
	<rect x="8.7" y="266.7" class="st2" width="322" height="7.7"/>
	<rect x="8.7" y="288.7" class="st2" width="322" height="7.7"/>
	<rect x="8.7" y="333" class="st3" width="322" height="7.6"/>
	<rect x="8.7" y="355.1" class="st3" width="322" height="7.6"/>
	<rect x="8.7" y="377.3" class="st3" width="322" height="7.6"/>
	<rect x="30.6" y="163.9" class="st2" width="44.6" height="25.8"/>
	<rect x="256.7" y="163.9" class="st2" width="44.6" height="25.8"/>
	<rect x="17.1" y="199.1" class="st2" width="58.1" height="15.5"/>
	<rect x="257.5" y="199.1" class="st2" width="58.1" height="15.5"/>
</g>
<g>
	<path class="st4" d="M165.6,418.3c-79.3,0-143.9-64.6-143.9-143.9c0-79.3,64.6-143.9,143.9-143.9c79.3,0,143.9,64.6,143.9,143.9
		C309.5,353.8,244.9,418.3,165.6,418.3 M165.6,132.1c-78.5,0-142.3,63.9-142.3,142.4c0,78.5,63.9,142.3,142.3,142.3
		c78.5,0,142.4-63.9,142.4-142.3C307.9,195.9,244.1,132.1,165.6,132.1"/>
	<path class="st5" d="M227.1,346.6c-0.1-0.8,0.1-2-0.7-2.2c0.5-2.7-2.9-1.1-2.2,0.7c-1.2,0-0.4,2-1.4,2.2c-3.4,2.9-12,4.3-8.6,11.5
		v2.2c-0.6,0.2-0.8,0.6-0.7,1.4h-0.7c-1.8,1.9-2.8,6.9-1.1,9.7c0.3,0.5,0.6,0.9,1,1.2c2.9,1.5,5.3,0.3,7.8-0.6c-0.8-1.6-0.4-2,1-3.4
		c0-0.5-0.1-1.2,0-1.8c1.1-1.1,1.2-3.2,1.4-5v-2.2h0.7c1.1-0.6,1.5-1.8,1.4-3.6c-0.2-2.9,1.7-3.6,1.4-6.5h0.7
		C228.2,350.6,228.2,346.3,227.1,346.6"/>
	<path class="st6" d="M211.2,315c0.9-0.3,1.5-0.9,1.4-2.2c0.4-1,1.1-1.8,2.2-2.2h0.7c2.3-2.5,6.2-3.4,7.2-7.2
		c-0.2-2.1,1.6-2.2,1.4-4.3h0.7c2.4-1.7,6.9-10.9,4.2-13.2c-0.1-0.2-0.3-0.3-0.5-0.4c-0.1,0-0.2-0.1-0.3-0.1c0,0,0,0,0,0
		c-0.1,0-0.3,0-0.4,0c-0.8-0.1-1.3,0.2-1.4,0.7c-3.8,0.1-6.8,0.9-9.4,2.2h-0.7c-0.5-1-1.5-1.3-2.9-1.4c-1-3.3-1.7-6.9-5-7.9
		c-0.7-1.3-1.6-2.2-2.9-2.9c-2.4,0.3-1.2-3.1-2.2-4.3c-6.7-8.2-9.4-20.4-15.8-28.8c1.7,0,3.8,5.6,4.3,2.2v-0.7
		c1.9-1.5-1.8-3.4-1.4-5.8c-7.4,1-15.4-0.4-23.4-2.8c-0.2-0.1-0.3-0.2-0.5-0.2c0,0-0.1,0-0.1,0c-0.1-0.1-0.3-0.1-0.5-0.2
		c0,0-0.1,0-0.1,0c-0.2,0-0.3-0.1-0.5-0.1c0,0-0.1,0-0.1,0c-0.2,0-0.4-0.1-0.7-0.1c-0.7-0.2-1.4-0.5-2.2-0.7c-2,2.7,0,5.1-3.6,6.5
		c-5.6-3.3-12.1-5.6-17.3-9.4c0.7-2.9,0.4-4.7-0.7-7.2h-1.4h-0.7h-1.4c-7.6,2.4-17.8,0-23,5.8c-2.2-0.7-4.3-1.5-6.5-2.2
		c-0.3,0.6-0.7,1.1-1.1,1.5c-0.2,0.1-0.3,0.3-0.5,0.4c-0.1,0.1-0.2,0.2-0.4,0.3c-0.2,0.2-0.4,0.4-0.7,0.7c-3.1,2.5-7,4.1-6.8,9.9
		c-0.4,0.6-0.8,1.1-1.2,1.7c0,0,0,0,0,0c-7.8,5.9-17.7,15.3-13.2,26.5c0,1.7-1.2,2.1-0.7,4.3c-0.9,1.2-2.4,1.9-2.2,4.3
		c-0.2,1.2,0.7,1.2,0.7,2.2c0.6,2-1,1.9-0.7,3.6c2.3,1.3,3.9,3.3,5.8,5c-0.3,2.3,1.9,1.9,2.2,3.6c1.3,4.7,4.9,7.1,8.6,9.4h2.2v0.7
		c-0.1,1.2,4.4,1.2,4.3,0v-0.7h2.2c1.1-0.1,2.7,0.3,2.9-0.7h0.7c0.6,0.7,3.7,2.4,4.3,0.7v-0.7c2.2,0.5,2.1-1.2,4.3-0.7
		c1.9-0.5,3.7-1.1,5-2.2h2.9c0.6,1.5,3.2,1.2,4.3,2.2v2.2c3,1.1,7.6,0.6,8.6,3.6v5c-0.7,0-0.6,0.9-0.7,1.4c-1.4,0.8-0.8,5.6,0,6.5
		c4.8,4.1,7.2,10.5,8.6,18c-0.5,2.2,1.2,2.1,0.7,4.3c-1.4,1.8-2.7,3.5-2.9,6.5c-1.2,1.2-1.6,3.2-1.4,5.8c0.4,1-0.8,3.7,0.7,3.6
		c-0.1,0.8,0.2,1.3,0.7,1.4c0.7,0,0.6,0.9,0.7,1.4c0,1.2,0.6,1.8,1.4,2.2c1.4,1.2,1.9,3.4,2.2,5.8c0.7,6.3,0.7,13.2,5,15.8
		c-0.1,0.8,0.2,1.3,0.7,1.4c-0.4,3.1,2.3,2.9,2.2,5.8v2.9v0.7c2.6,3.2,8.1,1.3,12.5,0.8h0h0c0.4,0,0.8-0.1,1.2-0.1c0.5,0,1,0,1.4,0
		c1.4-0.3,3.1-0.3,2.9-2.2c1.3,0.1,1.5-0.9,2.9-0.7c1.5-0.9,2.7-2.1,3.6-3.6v-0.7c1.4-1.2,3.3-1.9,3.6-4.3c1.4-0.1,0.5-2.4,2.2-2.2
		c1-0.6,1.3-1.5,1.3-2.5c0-1-0.1-2.1,0-3c2.2-5,10.4-3.8,10.8-9.5h-0.4c0.4-0.8,1.2-1.6-0.6-3.1c-0.3-0.4-0.5-0.7-0.7-1.1
		c-0.3-0.8-0.5-1.6-0.6-2.5c-1.4-5.9,6-5.5,8.2-10.1c0.5-0.9,0.9-1.8,1.1-2.8c0.5-2,0.6-4.2,0.3-6.4c0-0.4,0-0.9,0-1.2
		c-0.1-1.1-0.6-1.9-1.4-2.4h-0.7c0.3-1.7-1.3-1.6-0.7-3.6c-0.4-1,0.8-3.7-0.7-3.6v-2.2c1.1-3.9,3.3-6.8,5.8-9.4v-0.7
		C209.1,315.8,211.4,316.6,211.2,315"/>
</g>
<g>
	<defs>
		<path id="SVGID_3_" d="M139.2,224.3h-0.7h-1.4c-7.6,2.4-17.8,0-23,5.8c-2.2-0.7-4.3-1.5-6.5-2.2c-0.3,0.6-0.7,1.1-1.1,1.5
			c-0.2,0.1-0.3,0.3-0.5,0.4c-0.1,0.1-0.2,0.2-0.4,0.3c-0.2,0.2-0.4,0.4-0.7,0.7c-3.1,2.5-7,4.1-6.8,9.9c-0.4,0.6-0.8,1.1-1.2,1.7
			c0,0,0,0,0,0c-7.8,5.9-17.7,15.3-13.2,26.5c0,1.7-1.2,2.1-0.7,4.3c-0.9,1.2-2.4,1.9-2.2,4.3c-0.2,1.2,0.7,1.2,0.7,2.2
			c0.6,2-1,1.9-0.7,3.6c2.3,1.3,3.9,3.3,5.8,5c-0.3,2.3,1.9,1.9,2.2,3.6c1.3,4.7,4.9,7.1,8.6,9.4h2.2v0.7c-0.1,1.2,4.4,1.2,4.3,0
			v-0.7h2.2c0.3,0,0.6,0,0.9,0c0.9,0,1.9,0.1,2-0.7h0.7c0.6,0.7,3.7,2.4,4.3,0.7v-0.7c1.1,0.3,1.6,0,2.2-0.4
			c0.5-0.3,1.1-0.6,2.2-0.4c1.9-0.5,3.7-1.1,5-2.2h2.9c0.6,1.6,3.2,1.2,4.3,2.2v2.2c3,1.1,7.6,0.6,8.6,3.6v5c-0.7,0-0.6,0.9-0.7,1.4
			c-1.4,0.8-0.8,5.6,0,6.5c4.8,4.1,7.2,10.5,8.6,18c-0.5,2.2,1.2,2.1,0.7,4.3c-1.4,1.8-2.7,3.5-2.9,6.5c-1.2,1.1-1.6,3.2-1.4,5.8
			c0.4,1-0.8,3.7,0.7,3.6c-0.1,0.8,0.2,1.3,0.7,1.4c0.7,0,0.6,0.9,0.7,1.4c0,1.2,0.6,1.8,1.4,2.2c1.4,1.2,1.9,3.3,2.2,5.8
			c0.7,6.3,0.7,13.2,5,15.8c-0.1,0.8,0.2,1.3,0.7,1.4c-0.4,3.1,2.3,2.9,2.2,5.8v2.9v0.7c2.6,3.2,8.1,1.3,12.5,0.8h0h0
			c0.4,0,0.8-0.1,1.2-0.1c0.5,0,1,0,1.4,0c1.4-0.3,3.1-0.3,2.9-2.2c0.6,0,1-0.2,1.4-0.4c0.4-0.2,0.8-0.4,1.5-0.4
			c1.5-0.9,2.7-2.1,3.6-3.6v-0.7c1.4-1.2,3.3-1.9,3.6-4.3c1.4-0.1,0.5-2.4,2.2-2.2c1-0.6,1.3-1.5,1.3-2.5c0-1-0.1-2.1,0-3
			c2.2-5,10.4-3.8,10.8-9.5h-0.4c0.4-0.8,1.2-1.6-0.6-3.1c-0.3-0.4-0.5-0.7-0.7-1.1c-0.3-0.8-0.5-1.6-0.6-2.5
			c-1.4-5.9,6-5.5,8.2-10.1c0.5-0.9,0.9-1.8,1.1-2.8c0.5-2,0.6-4.2,0.3-6.3c0-0.4,0-0.9,0-1.2c-0.1-1.1-0.6-1.9-1.4-2.4h-0.7
			c0.3-1.7-1.3-1.6-0.7-3.6c-0.4-1,0.8-3.7-0.7-3.6v-2.2c1.1-3.9,3.3-6.8,5.8-9.4v-0.7c0.1-1.4,2.4-0.5,2.2-2.2
			c0.9-0.3,1.5-0.9,1.4-2.2c0.4-1,1.1-1.8,2.2-2.2h0.7c2.3-2.5,6.2-3.4,7.2-7.2c-0.2-2.1,1.6-2.2,1.4-4.3h0.7
			c2.4-1.7,6.9-10.8,4.2-13.2c-0.1-0.2-0.3-0.3-0.5-0.4c-0.1,0-0.2-0.1-0.3-0.1c0,0,0,0,0,0c-0.1,0-0.3,0-0.4,0
			c-0.8-0.1-1.3,0.2-1.4,0.7c-3.8,0.1-6.8,0.9-9.4,2.2h-0.7c-0.5-1-1.5-1.3-2.9-1.4c-1-3.3-1.7-6.9-5-7.9c-0.6-1.3-1.6-2.2-2.9-2.9
			c-2.4,0.3-1.2-3.1-2.2-4.3c-6.7-8.2-9.4-20.4-15.8-28.8c1.7,0,3.8,5.6,4.3,2.2v-0.7c1.9-1.5-1.8-3.4-1.4-5.8
			c-7.4,1-15.4-0.4-23.4-2.8h0c-0.2-0.1-0.3-0.2-0.5-0.2c0,0-0.1,0-0.1,0c-0.1-0.1-0.3-0.1-0.5-0.2c0,0-0.1,0-0.1,0
			c-0.2,0-0.3-0.1-0.5-0.1c0,0-0.1,0-0.1,0c-0.2,0-0.4-0.1-0.7-0.1c-0.7-0.2-1.4-0.5-2.2-0.7c-2,2.7,0,5.1-3.6,6.5
			c-5.6-3.3-12.1-5.6-17.3-9.4c0.7-2.9,0.4-4.7-0.7-7.2H139.2z"/>
	</defs>
	<clipPath id="SVGID_4_">
		<use xlink:href="#SVGID_3_"  style="overflow:visible;"/>
	</clipPath>
	<rect x="11.8" y="255.6" class="st7" width="322" height="7.7"/>
	<rect x="11.8" y="233.5" class="st7" width="322" height="7.6"/>
	<rect x="11.8" y="277.7" class="st7" width="322" height="7.6"/>
	<rect x="11.8" y="299.9" class="st7" width="322" height="7.7"/>
	<rect x="11.8" y="322" class="st7" width="322" height="7.7"/>
	<rect x="11.8" y="344.1" class="st8" width="322" height="7.7"/>
	<rect x="11.8" y="366.2" class="st8" width="322" height="7.7"/>
	<rect x="11.8" y="388.3" class="st8" width="322" height="7.7"/>
</g>
<g>
	<path class="st0" d="M239,276c0,23.9-19.4,43.3-43.3,43.3c-23.9,0-43.3-19.4-43.3-43.3c0-23.9,19.4-43.3,43.3-43.3
		C219.6,232.7,239,252.1,239,276"/>
	<path class="st4" d="M195.7,320c-24.3,0-44-19.7-44-44c0-24.3,19.7-44,44-44c24.3,0,44,19.8,44,44C239.8,300.2,220,320,195.7,320
		 M195.7,233.5c-23.4,0-42.5,19.1-42.5,42.5c0,23.4,19.1,42.5,42.5,42.5c23.4,0,42.5-19.1,42.5-42.5
		C238.2,252.5,219.2,233.5,195.7,233.5"/>
	<rect x="98.6" y="159.4" class="st1" width="9.4" height="58.7"/>
	<path class="st1" d="M190.3,218.1h-9.4v-21.2h-11.2v21.2h-9.4v-10.5v-46.8c0-6.3,5.2-11.5,11.5-11.5h7.3c6.3,0,11.4,5.2,11.4,11.5
		V218.1z M180.9,187.5v-19.4c0-6.2-0.7-10.3-4.1-10.3h-3.2c-3.1,0-4,4.1-4,10.3v19.4H180.9z"/>
	<path class="st1" d="M201.7,218.1v-58.7h9.9h10.6c5.7,0,10.4,4.7,10.4,10.4v37.9c0,5.7-4.7,10.4-10.4,10.4h-10.6H201.7z
		 M213.6,208.6h2.5c3.9,0,7.1-3.8,7.1-8.5v-22.9c0-4.7-3.2-8.5-7.1-8.5h-2.5h-2.4v39.9H213.6z"/>
	<path class="st1" d="M148.8,181.8v25c0,6.2-4.3,11.2-10.5,11.2h-7.7c-6.2,0-11.2-5.1-11.2-11.2v-44.6c0-6.2,5.1-11.2,11.2-11.2
		h16.6v9.3h-14.7c0,0-3.7-0.4-3.7,5.3v38.1c0,0-0.1,4.9,5.7,4.9c5.8,0,5-5,5-5v-12.5h-5v-9.4H148.8z"/>
</g>
<g>
	<ellipse class="st9" cx="168" cy="274.9" rx="248.9" ry="249.2"/>
	<path class="st4" d="M168.3,524.9c-137.8,0-250-112.1-250-250c0-137.9,112.1-250,250-250s250,112.1,250,250
		C418.3,412.8,306.1,524.9,168.3,524.9 M168.3,26.5c-137,0-248.5,111.5-248.5,248.5S31.3,523.4,168.3,523.4
		c137,0,248.5-111.5,248.5-248.5S305.3,26.5,168.3,26.5"/>
</g>
<g>
	<path class="st4" d="M168.3,481.1c-113.7,0-206.2-92.5-206.2-206.2c0-113.7,92.5-206.2,206.2-206.2s206.2,92.5,206.2,206.2
		C374.5,388.6,282,481.1,168.3,481.1 M168.3,70.3c-112.9,0-204.7,91.8-204.7,204.7c0,112.9,91.8,204.7,204.7,204.7
		S373,387.8,373,274.9C373,162.1,281.1,70.3,168.3,70.3"/>
	<polygon class="st10" points="-57.7,246.8 -55.7,254.5 -47.8,254.9 -54.4,259.2 -52.4,266.8 -58.5,261.8 -65.2,266.1 -62.3,258.7 
		-68.5,253.7 -60.6,254.2 	"/>
	<polygon class="st10" points="395.3,246.8 393.3,254.5 385.3,254.9 392,259.2 390,266.8 396.1,261.8 402.8,266.1 399.9,258.7 
		406.1,253.7 398.1,254.2 	"/>
	<path class="st11" d="M205.7,314.5l0.6-1.3l0.7-1.9l1.4-1.7l1.1-1l1.4-1.4l0.8-1.6l1.4-1.6l1.2-1.4l0.9-1l2.3-1.8l1.8-1.6l1.2-0.8
		l1.3-0.7l0.9-0.7l1-1.1l0.9-1l0.5-0.6l1.5-1.6l2.1-3.3l1.8-3.4l1.4-2.8l0.9-1.1l0.5-1.8l1.1-1.8l0.2-1.4l0.4-1.4l0.1-1.3l0.1-1.3
		l0.3-0.6l-0.6-0.2l-0.5-0.3l-0.2,0.4l-0.5,0.6l-1,0.3l-1.5,0.2l-1.1,0.4l-1.2,0.1l-0.7,0.4h-0.6l-0.8-0.1h-0.8l-1,0.7l-1.1,0.3
		l-0.6,0.1l-0.8-0.1l-0.5-0.1l-0.7,0.1l-0.7,0.5l-0.9,0.4l-0.7,0.1l-0.7-0.2l-0.6-0.5l-0.6-0.6l-0.6-0.6l-0.7-0.9l-0.6-0.3l-0.5-0.1
		l-0.5,0.2l-0.3,0.1l-0.4-0.4l0.6-0.3l0.3-0.4l0.8-0.3l0.5-0.2l0.1-0.5l-0.5-1.1l-0.6-0.4l-0.7-0.6l-0.5-0.4l-0.4-0.6l-0.5-0.6
		l-0.5-0.5l-0.9-0.3l-0.1-0.4l-0.6-1l-0.7-0.3l-0.5-0.2l-0.8-0.3l-0.4-0.2l-0.6-0.3l-0.8,0.1l-0.3-0.9l-0.5-0.8l-0.4-1l-0.1-1.1
		l-0.1-0.7l-0.3-1l-1.1-2.1l-0.7-0.7l-0.6-0.9l-0.9-0.5h-0.7l-0.4-0.6l-0.1-1.2l-0.3-1.7v-1.6l-0.2-1.6l-0.3-1.3l-0.4-1l-1-0.7
		l-0.6-0.8l-0.4-0.2l-0.7-0.6l-0.6-0.1l-0.5,0.3h-0.4l-0.5,0.5l-0.4,0.7l-0.6,0.5l-0.7,0.2l-0.1,0.5l-0.4,0.5l-0.6-0.2l-0.9-0.1
		l-0.6-0.4l-0.9,0.1l-1.4-0.1l-1-0.1l-1.2,0.1l-1.4,0.1l-1,0.1h-2.1h-1.7h-1.3h-1.7h-1.1l-2.5-0.1l-1.2-0.1l-0.7,0.1l-1.3,0.3
		l-0.4,0.3v1.6l0.2,1.6l-0.1,0.8l-0.5,0.3l-1.3,0.1L166,250l-0.1,1.2v1.6l0.1,1.6l-0.2,1.6v1.4l0.2,1.9v1l-0.1,0.9l-0.4,0.2h-0.8h-1
		l-0.3,0.7l-0.5,1.1l-0.6,0.2l-0.3,1l-0.3,0.9l-0.2,1.2l-0.4,0.7v0.8l-0.6,1l0.1,0.7l0.9-0.4l0.4,0.5l-0.1,1.4c0,0,0.2,0.6,0.5,0.8
		c0.3,0.2,0.7,0.8,0.7,0.8l0.1,0.6l0.1,1.1l0.9,0.9l0.5,1.3l0.1,1.4l-0.2,1.1l0.4,0.6l1,0.1l0.5,0.7l0.1,0.5l0.8,0.3l0.7,0.2
		l0.3,0.5l0.4,1.1l0.7,1l1,0.1l0.7,0.3l-0.2,0.6l0.6,0.1l0.2,1l0.4,0.3l0.1,0.7l0.8,0.3l1.1,0.3v0.7v0.7l0.9,0.9l1,1.1l1.1,0.2
		l1.1-0.3l0.8,0.2l0.6-0.8l0.5,0.3l0.3,0.6l0.9,0.9l0.4,0.5l0.6,0.6l0.8,0.4l-0.2,1.2l-0.2,1.3l0.6,1.2l-0.6,1.4l-1.1,0.5l-0.5,0.7
		L181,302l-0.5,1v1.6L180,306l1.1,0.8l0.6-0.6l0.8-0.2l0.7-0.1h1.4l2.1-0.2l2.1-0.1h2l0.8,0.3l0.8,0.3l1.4,1l2.6,1.4l1.7,0.9
		c0,0,1,0.8,1.3,0.8c0.3,0,1.3,1.2,1.3,1.2l0.2,0.7l0.2,0.8l1,0.8l0.7,0.3l1,1.1l0.8-0.1L205.7,314.5z"/>
	<path class="st1" d="M165.7,453.4c0,0,2.3,0,7.2,0.2c5.1,0.3,8.6,1.3,13.2,2.4c5.9,1.4,10,9.2,10,9.2l10.3-1c0,0-0.5-4.4-1.5-5.9
		c-1-1.5-4.6-3.9-4.6-3.9s8-1.3,12.4-1.5c4.4-0.3,14.7-2.1,21.1-4.4c6.4-2.3,20.9-9.3,20.9-9.3l6.7-3.1c0,0-3.2-0.4-5-0.9
		c-1.7-0.5-3-3.2-3-3.2s7.5,2.1,13.6,0c6.2-2.1,12.1-8.5,14.7-11.1c2.6-2.6,14.7-11.8,14.7-11.8l-11.6,0.8l0.5-5.1
		c0,0,3.3-0.3,8-1.3c4.6-1,10.3-2.8,18.8-10.3c8.5-7.5,13.9-17.5,13.9-17.5l-13.3-0.4l3.2-4.8c0,0,3.9-0.8,10.6-4.6
		c6.7-3.9,10.3-12.6,12.6-17.5c2.3-4.9,6.2-19.6,6.2-19.6s-2.6,2.8-5.7,4.9c-3.1,2.1-5.1,1-5.1,1l1.5-8c0,0,2.1-0.8,4.9-1.5
		s7.5-5.9,9.8-9.5c2.3-3.6,3.6-17.3,3.4-19.8c-0.3-2.6,2.3-12.1,2.3-12.1s-2.6,1.5-5.1,4.4c-2.6,2.8-6.2,4.4-6.2,4.4v-5.4
		c0,0,2.8-1.8,4.6-3.6c1.8-1.8,4.6-7.2,4.6-7.2l0.3-36.8c0,0-2.3,2.8-4.1,4.4c-1.8,1.5-7.5,9-7.5,9l-0.8-5.7c0,0,4.6-6.7,5.9-12.1
		c1.3-5.4-1.3-13.4-2.3-19.6c-1-6.2-0.8-12.6-0.8-12.6s-1.4,2.6-4.5,6.1c-3.1,3.5-6.7,3.8-6.7,3.8s-0.9-13.4-4.1-19
		C324.4,184.7,309,178,309,178s-0.4,16.4,4.9,24.1c3.3,4.8,10.2,11.6,10.2,11.6s-3.5,1-7-0.9c-3.5-1.9-5.6-4.6-5.6-4.6
		s2.1,13.5,7.1,23.9c5,10.4,13.5,15.8,13.5,15.8l0.2,5.8c0,0-2.6-1-5.7-3.2c-2.8-2-4.2-4.9-4.2-4.9v29.2c0,0,1.7,5,4.4,7.1
		c3,2.3,5.7,4.8,5.7,4.8l0.4,6.4c0,0-2.7-2.3-5.4-5c-2.7-2.7-4.6-5.4-4.6-5.4s-0.6,16.4-2.7,28.8c-1.6,9.2,5.4,12.2,5.4,12.2
		l-2.7,9.8c0,0-1.9-6-4.6-9.5c-2.7-3.5-3.1-5.4-3.1-5.4s-0.4,14.3-5,20.5c-4.6,6.2-6.8,12-6.8,16.2c0,4.3,4.4,9.7,4.4,9.7l-3.1,5
		c0,0-2.5-3.3-3.1-6.2c-0.5-2.7-1.2-5.8-1.2-5.8s-7,10.8-12.4,17.4c-5.4,6.6-7,10.4-7,13.5c0,3.1-3.1,11.2-3.1,11.2l-4.6,1.2
		l0.4-14.7c0,0-17.8,16.2-20.5,20.1c-2.7,3.9-6,9.8-6.6,13.5c-0.2,1.3,0.7,6.2,0.7,6.2s-19.4,9.1-32.4,12.1
		c-14.3,3.3-35.1,2.8-39.3,3.2c-4.2,0.4-10,0.3-10,0.3l0,0c0,0-5.7,0.1-10-0.3c-4.3-0.4-25.1,0.1-39.4-3.2
		c-13-3-32.4-12.1-32.4-12.1s0.9-4.8,0.7-6.2c-0.6-3.7-3.9-9.7-6.6-13.5c-2.7-3.9-20.5-20.1-20.5-20.1l0.4,14.7l-4.6-1.2
		c0,0-3.1-8.1-3.1-11.2c0-3.1-1.5-7-7-13.5C38,368.8,31.1,358,31.1,358s-0.6,3.1-1.2,5.8c-0.6,2.8-3.1,6.2-3.1,6.2l-3.1-5
		c0,0,4.4-5.4,4.4-9.7c0-4.2-2.1-10-6.8-16.2c-4.6-6.2-5-20.5-5-20.5s-0.4,1.9-3.1,5.4s-4.6,9.5-4.6,9.5L6,323.6c0,0,7-3,5.4-12.2
		c-2.1-12.4-2.7-28.8-2.7-28.8s-1.9,2.7-4.6,5.4c-2.7,2.7-5.4,5-5.4,5l0.4-6.4c0,0,2.7-2.5,5.7-4.8c2.7-2.1,4.4-7.1,4.4-7.1v-29.2
		c0,0-1.4,2.9-4.2,4.9c-3.1,2.2-5.7,3.2-5.7,3.2l0.2-5.8c0,0,8.5-5.4,13.5-15.8c5-10.4,7.1-23.9,7.1-23.9s-2.1,2.7-5.6,4.6
		c-3.5,1.9-7,0.9-7,0.9s6.9-6.8,10.2-11.6c5.3-7.7,4.9-24.1,4.9-24.1s-15.4,6.7-20.7,15.8c-3.2,5.6-4.1,19-4.1,19s-3.6-0.3-6.7-3.8
		c-3.2-3.5-4.5-6.1-4.5-6.1s0.3,6.4-0.8,12.6c-1,6.2-3.6,14.2-2.3,19.6c1.3,5.4,5.9,12.1,5.9,12.1l-0.8,5.7c0,0-5.7-7.5-7.5-9
		c-1.8-1.5-4.1-4.4-4.1-4.4l0.3,36.8c0,0,2.8,5.4,4.6,7.2c1.8,1.8,4.6,3.6,4.6,3.6v5.4c0,0-3.6-1.5-6.2-4.4
		c-2.6-2.8-5.2-4.4-5.2-4.4s2.6,9.5,2.3,12.1c-0.3,2.6,1,16.2,3.3,19.8c2.3,3.6,7,8.8,9.8,9.5c2.8,0.8,4.9,1.5,4.9,1.5l1.5,8
		c0,0-2.1,1-5.2-1c-3.1-2.1-5.7-4.9-5.7-4.9s3.9,14.7,6.2,19.6c2.3,4.9,5.9,13.6,12.6,17.5c6.7,3.9,10.6,4.6,10.6,4.6l3.2,4.8
		l-13.3,0.4c0,0,5.4,10,13.9,17.5c8.5,7.5,14.2,9.3,18.8,10.3c4.6,1,8,1.3,8,1.3l0.5,5.1l-11.6-0.8c0,0,12.1,9.3,14.7,11.8
		c2.6,2.6,8.5,9,14.7,11.1c6.2,2.1,13.6,0,13.6,0s-1.2,2.7-3,3.2c-1.9,0.5-5,0.9-5,0.9l6.7,3.1c0,0,14.4,7,20.8,9.3
		c6.4,2.3,16.7,4.1,21.1,4.4c4.4,0.3,12.4,1.5,12.4,1.5s-3.6,2.3-4.6,3.9c-1,1.5-1.5,5.9-1.5,5.9l10.3,1c0,0,4.1-7.8,10-9.2
		c4.5-1.1,8-2.1,13.2-2.4c4.9-0.3,7.2-0.2,7.2-0.2"/>
</g>
</svg>
